<?xml version="1.0" encoding="utf-8"?>
<!-- Generator: Adobe Illustrator 17.0.0, SVG Export Plug-In . SVG Version: 6.00 Build 0)  -->
<!DOCTYPE svg PUBLIC "-//W3C//DTD SVG 1.1//EN" "http://www.w3.org/Graphics/SVG/1.1/DTD/svg11.dtd">
<svg version="1.1" id="图层_1" xmlns="http://www.w3.org/2000/svg" xmlns:xlink="http://www.w3.org/1999/xlink" x="0px" y="0px"
	 width="320px" height="164px" viewBox="0 0 320 164" enable-background="new 0 0 320 164" xml:space="preserve">
<polygon fill="#BFBFBF" points="185.454,72.732 174.454,72.732 174.454,80.734 176.454,80.734 176.454,83.734 180.204,80.734 
	185.454,80.734 "/>
<polygon fill="#D53831" points="222.406,79.733 215.909,71.735 209.412,79.733 213.409,79.733 213.409,95.734 218.409,95.734 
	218.409,79.733 "/>
<path fill="#077C27" d="M236.404,87.737V71.736h5v16.001h3.997l-6.497,7.996l-6.497-7.996H236.404z"/>
<path fill="#FFFDFD" d="M263.974,77.437l14.149-17.21l14.148,17.21h1.67l-15.017-18.268c-0.477-0.579-1.249-0.579-1.726,0
	l-15.017,18.268H263.974z"/>
<path fill="#8BB0E7" d="M81.967,133.753h-8c-1.104,0-2,0.834-2,1.862v7.376c0,1.027,0.896,1.86,2,1.86h8c1.104,0,2-0.833,2-1.86
	v-7.376C83.967,134.587,83.072,133.753,81.967,133.753z M95.967,124.758h-28c-1.104,0-2,0.896-2,2v24c0,1.104,0.896,2,2,2h28
	c1.104,0,2-0.896,2-2v-24C97.967,125.653,97.072,124.758,95.967,124.758z M94.967,148.759c0,0.552-0.448,1-1,1h-24
	c-0.552,0-1-0.448-1-1v-20.001c0-0.552,0.448-1,1-1h24c0.552,0,1,0.448,1,1V148.759z M91.327,132.832
	c-0.396-0.147-0.826-0.07-1.129,0.201l-4.934,5.754c-0.382,0.342-0.4,0.885-0.041,1.246l4.941,5.414
	c0.291,0.287,0.729,0.38,1.138,0.243c0.41-0.136,0.666-0.46,0.666-0.843v-11.153C91.967,133.307,91.724,132.981,91.327,132.832z"/>
<path fill="#8BB0E7" d="M191.042,136.757h-16c-0.552,0-1,0.446-1,0.999v2c0,0.553,0.447,1,1,1h16c0.551,0,1-0.447,1-1v-2
	C192.041,137.203,191.593,136.757,191.042,136.757z M175.041,134.757h5c0.552,0,1-0.449,1-1v-2c0-0.554-0.448-1-1-1h-5
	c-0.552,0-1,0.446-1,1v2C174.042,134.308,174.489,134.757,175.041,134.757z M197.038,124.758h-28c-1.104,0-2,0.896-2,1.999v24.001
	c0,1.104,0.896,2,2,2h28c1.104,0,2-0.896,2-2v-24.001C199.038,125.653,198.142,124.758,197.038,124.758z M196.038,148.758
	c0,0.552-0.448,1-1,1h-24c-0.552,0-1-0.448-1-1v-20.001c0-0.552,0.448-1,1-1h24c0.552,0,1,0.448,1,1V148.758z M183.041,142.756
	h-7.999c-0.552,0-1,0.448-1,1.001v1.999c0,0.553,0.447,1,1,1h7.999c0.553,0,1.001-0.447,1.001-1v-1.999
	C184.042,143.204,183.594,142.756,183.041,142.756z"/>
<path fill="#6CA724" d="M235.003,125.739h-9c-1.105,0-2,0.894-2,1.999v1c0,1.106,0.895,2.001,2,2.001h9c1.104,0,2-0.896,2-2.001v-1
	C237.003,126.634,236.108,125.739,235.003,125.739z M219.003,125.739h-1c-1.105,0-2,0.894-2,1.999v1c0,1.106,0.895,2.001,2,2.001h1
	c1.104,0,2-0.896,2-2.001v-1C221.003,126.634,220.108,125.739,219.003,125.739z"/>
<path fill="#2184D2" d="M243.003,135.756h-17c-1.105,0-2,0.896-2,2v1.001c0,1.104,0.895,1.999,2,1.999h17c1.104,0,2-0.895,2-1.999
	v-1.001C245.003,136.653,244.108,135.756,243.003,135.756z M219.003,135.756h-1c-1.105,0-2,0.896-2,2v1.001
	c0,1.104,0.895,1.999,2,1.999h1c1.104,0,2-0.895,2-1.999v-1.001C221.003,136.653,220.108,135.756,219.003,135.756z"/>
<path fill="#D51D1D" d="M239.003,144.734h-13c-1.105,0-2,0.895-2,2v0.999c0,1.104,0.895,2,2,2h13c1.104,0,2-0.896,2-2v-0.999
	C241.003,145.628,240.108,144.734,239.003,144.734z M219.003,144.734h-1c-1.105,0-2,0.895-2,2v0.999c0,1.104,0.895,2,2,2h1
	c1.104,0,2-0.896,2-2v-0.999C221.003,145.628,220.108,144.734,219.003,144.734z"/>
<polygon fill="#2B73E0" points="319.067,111.695 266.939,111.695 266.939,163.823 "/>
<g>
	<path fill="#FFFFFF" d="M270.08,133.413l0.779-0.779l2.326,2.326l0.18-0.767c0.884,0.125,1.705,0.301,2.463,0.525l-0.231,1.073
		c-0.751-0.272-1.478-0.473-2.18-0.601l7.739,7.739l-0.779,0.779L270.08,133.413L270.08,133.413z M271.564,136.772l0.812-0.601
		c0.751,0.977,1.495,2.029,2.231,3.159l-0.873,0.537C273.172,138.969,272.45,137.938,271.564,136.772z M273.386,130.93l0.189-1.075
		c1.053,0.127,1.926,0.263,2.622,0.411l-0.244,1.168C275.247,131.245,274.39,131.077,273.386,130.93L273.386,130.93z
		 M274.428,133.088l3.19-3.19c-0.246-1.216-0.51-2.307-0.79-3.275l1.179-0.399c0.226,1.109,0.396,2.031,0.517,2.769l1.801-1.8
		l4.253,4.253l-0.768,0.768l-0.432-0.432l-0.927,0.927l3.001,3.001c0.315,0.315,0.61,0.337,0.885,0.063l0.695-0.695
		c0.344-0.344,0.378-0.702,0.105-1.074c-0.338-0.464-0.74-0.965-1.211-1.506c0.371-0.133,0.741-0.291,1.106-0.474
		c0.42,0.547,0.799,1.067,1.136,1.559c0.506,0.729,0.425,1.428-0.242,2.094l-0.927,0.928c-0.729,0.729-1.494,0.694-2.294-0.105
		l-3.022-3.021l-1.105,1.105c1.066,1.137,1.72,2.155,1.958,3.054c0.273,1.045,0.168,2.422-0.316,4.126
		c-0.386-0.063-0.801-0.098-1.242-0.104c0.533-1.56,0.691-2.784,0.475-3.675c-0.17-0.759-0.717-1.636-1.644-2.633l-0.789,0.79
		l0.432,0.431l-0.77,0.77L274.428,133.088L274.428,133.088z M280.303,128.706l-4.359,4.359l2.327,2.327l4.359-4.359L280.303,128.706
		z M280.376,123.77l9.286-9.286l9.907,9.907l-0.789,0.79l-0.506-0.506l-7.706,7.706l0.505,0.506l-0.79,0.79
		C290.283,133.677,280.376,123.77,280.376,123.77z M289.631,116.031l-7.707,7.707l7.886,7.886l7.707-7.706
		C297.517,123.918,289.631,116.031,289.631,116.031z M284.863,125.959c0.266-1.656,0.238-3.264-0.085-4.82l1.022-0.37
		c0.064,0.323,0.112,0.653,0.147,0.99l3.728-3.727l0.62,0.62c0.109,1.143,0.015,2.362-0.284,3.665
		c0.989-0.491,2.092-1.203,3.306-2.138c0.154,0.478,0.302,0.856,0.442,1.138c-1.53,0.962-2.904,1.692-4.122,2.195
		c-0.473,1.245-1.236,2.764-2.29,4.554c-0.329-0.134-0.673-0.238-1.032-0.316c0.98-1.484,1.708-2.792,2.186-3.922
		c-0.835,0.154-1.653,0.189-2.454,0.105c-0.013,0.652-0.065,1.328-0.152,2.026C285.606,125.953,285.262,125.953,284.863,125.959
		L284.863,125.959z M289.284,119.726l-3.248,3.248l0.005,0.069c0.932,0.116,1.875,0.031,2.833-0.253
		C289.21,121.675,289.347,120.654,289.284,119.726L289.284,119.726z M289.401,126.771l-0.496-0.916
		c1.186-0.878,2.446-1.786,3.78-2.727l0.516,0.959C291.817,125.005,290.55,125.9,289.401,126.771z M289.695,129.277l-0.506-0.948
		c1.986-1.523,3.944-2.94,5.875-4.254l0.517,1.086C293.685,126.367,291.722,127.739,289.695,129.277z"/>
</g>
<path fill="#8BB0E7" d="M148.89,129.759h-3v-3.001c0-1.104-0.896-2-2-2h-23c-1.104,0-2,0.896-2,2v20.001
	c0,1.104,0.896,1.999,2,1.999h3v2.001c0,1.104,0.896,2,2,2h23c1.104,0,2-0.896,2-2v-19
	C150.89,130.654,149.995,129.759,148.89,129.759z M123.89,131.759v14h-1c-0.552,0-1-0.448-1-1v-16.001c0-0.552,0.448-1,1-1h19
	c0.553,0,1,0.448,1,1v1.001h-17C124.786,129.759,123.89,130.654,123.89,131.759z M147.89,148.759c0,0.553-0.447,1-1,1h-19
	c-0.553,0-1-0.447-1-1v-15c0-0.553,0.447-1,1-1h19c0.553,0,1,0.447,1,1V148.759z M141.89,141.759c-2.506,0-3,3-3,3
	s-1.364-5.016-4.711-5.016c-4.536,0-5.289,7.011-5.289,7.011h16.924C145.814,146.754,145.347,141.759,141.89,141.759z
	 M141.886,138.741c1.109,0,2.009-0.893,2.009-1.995c0-1.1-0.899-1.993-2.009-1.993c-1.109,0-2.01,0.893-2.01,1.993
	C139.877,137.848,140.777,138.741,141.886,138.741z"/>
<path fill="#2B73DF" d="M151.489,73.234c0,1.374-1.113,2.487-2.487,2.487h-25.039c-1.374,0-2.487-1.113-2.487-2.487
	s1.113-2.487,2.487-2.487h25.039C150.376,70.747,151.489,71.86,151.489,73.234z"/>
<path fill="#2B73DF" d="M151.489,88.237c0,1.375-1.113,2.488-2.487,2.488h-25.039c-1.374,0-2.487-1.113-2.487-2.488
	c0-1.373,1.113-2.486,2.487-2.486h25.039C150.376,85.751,151.489,86.864,151.489,88.237z"/>
<path fill="#2B73DF" d="M151.489,102.252c0,1.375-1.113,2.488-2.487,2.488h-25.039c-1.374,0-2.487-1.113-2.487-2.488
	c0-1.373,1.113-2.486,2.487-2.486h25.039C150.376,99.766,151.489,100.879,151.489,102.252z"/>
<path fill="#FFD602" d="M29.913,2.667c0,0,1.903,0.355,0.122,1.081c-1.363,0.556-11.363,0.908-17.231,11.535
	c-4.447,8.053,0.262,19.777-6.556,20.383s-7.089-13.979-0.413-23.05C12.511,3.546,23.318,1.575,29.913,2.667z"/>
<path fill="#EE1A21" d="M3.163,36.966c0,0-0.7-1.804,0.855-0.673c1.19,0.866,6.759,9.18,18.883,8.567
	c9.188-0.463,16.671-10.643,20.778-5.167c4.107,5.475-8.146,13.391-19.372,12.496C13.08,51.294,5.711,43.147,3.163,36.966z"/>
<path fill="#39B449" d="M46.011,42.757c0,0-1.215,1.506-1.009-0.406c0.158-1.463,4.593-10.434-1.978-20.641
	c-4.979-7.736-17.533-9.155-14.831-15.443C30.895-0.022,43.862,6.66,48.679,16.84C53.495,27.021,50.101,37.468,46.011,42.757z"/>
<path fill="#0090C4" d="M33.924,25.483c0,0,0.663-9.001-7.386-9.384v-0.006l-0.119-0.002l-0.428-0.005l-0.428,0.005l-0.119,0.002
	v0.006c-8.049,0.383-7.386,9.384-7.386,9.384c-2.935,3.57-2.12,6.258-2.12,6.258c2.482,0.97,2.646-2.683,3.18-1.044
	c0.534,1.639,0,2.085,0,2.085s-1.008,0.659-1.06,2.088c-0.047,1.292,3.811,1.014,5.3,1.044c1.489,0.029,1.906-0.569,2.12-1.044
	c0.117-0.258,0.304-0.605,0.513-0.67c0.209,0.065,0.396,0.412,0.513,0.67c0.214,0.475,0.631,1.073,2.12,1.044
	c1.489-0.03,5.347,0.248,5.3-1.044c-0.052-1.429-1.06-2.088-1.06-2.088s-0.534-0.446,0-2.085s0.698,2.014,3.18,1.044
	C36.044,31.741,36.859,29.053,33.924,25.483z"/>
<g>
	<polygon fill="#2B73DF" points="204.534,40.263 182.863,40.263 182.15,43.79 203.816,43.79 	"/>
	<path fill="#2B73DF" d="M181.591,5.758c-0.837,0-2.329,0.242-3.171,0.709c-0.028-0.137,0.022-0.356,0.054-0.541h-4.005
		l-7.402,35.591c-0.05,0.2-0.261,2.466-1.775,4.416c-0.027,0.039-1.45,0-1.497,0l-0.659,3.688h3.497
		c0.175-0.05,0.891-0.351,1.295-0.673c0.881-1.059,2.277-3.608,2.464-4.533l2.037-9.797h4.66l-2.011,9.656
		c-0.043,0.198-0.29,1.028-0.719,1.617h-2.051l-0.824,3.729h2.907c0.347,0,0.924,0.032,1.326-0.065
		c0.15-0.037,0.359,0.065,0.789-0.189c0.225,0.278,1.885-1.091,2.401-3.455l7.541-36.242C187.073,6.66,183.639,5.758,181.591,5.758
		L181.591,5.758z M177.765,30.895h-4.543l1.895-9.125h4.547L177.765,30.895z M180.381,18.359h-4.559l1.733-8.319
		c0.572-0.572,2.1-0.816,2.605-0.816c0.472,0,2.085,0.2,1.913,0.993L180.381,18.359L180.381,18.359z M119.5,30.803h-18.64
		c0.113-0.563,1.048-7.795,1.124-8.176h15.326l1.179-3.527h-15.326c0.112-0.557,1.402-6.715,1.478-7.096h6.638
		c3.365,0.132,5.923-0.507,7.597-1.899c0.774-0.646,1.502-1.362,2.163-2.124l1.722-1.985h-5.608l-1.63,1.357
		c-0.874,0.649-2.458,0.996-4.569,0.996H82.485l-0.735,3.655h18.459c-0.111,0.551-1.689,6.744-1.76,7.096H81.944l-1.179,3.527
		h17.684c-0.105,0.525-1.945,7.797-2.022,8.176h-20.81l-0.737,3.655h20.811l-1.472,7.319c-0.6,1.537-0.995,1.799-2.844,2.012
		c-0.001-0.002-14.146,0-14.146,0l-1.78,4.678l14.937-0.066c4.259,0,7.096-2.179,8.2-6.301l1.539-7.642h18.639L119.5,30.803
		L119.5,30.803z M225.886,15.858l2.627-1.626c0,0-1.653-2.218-3.264-4.896c-1.426-2.524-1.675-3.225-1.675-3.225l-3.427,0.027
		c0,0,1.307,2.775,1.957,3.906C222.747,11.177,225.886,15.858,225.886,15.858L225.886,15.858z M158.304,45.91l-0.382-0.105
		l-0.021-0.187c0-0.179,0.035-0.515,0.19-1.121l6.345-31.985c0.128-0.529,0.194-1.03,0.194-1.497c0-0.964-0.275-1.79-0.825-2.462
		c-0.974-1.192-2.669-1.732-5.186-1.65h-4.668c-0.808,0.044-1.537,0.235-2.243,0.514l0.177-0.877h-4.433l-5.328,26.472
		c-1.211,5.445-2.479,7.876-2.778,8.401c-0.46,0.01-1.064-0.062-1.261-0.246c0.006-0.593,0.15-1.296,0.611-3.266l2.668-13.254
		l0.168-1.707c-0.021-1.077-0.326-1.977-0.901-2.676c-0.87-1.057-2.301-1.594-4.251-1.594h-0.328l0.686-3.404h7.058l0.773-3.836
		h-7.059l1.531-7.604l-4.433-0.002l-1.531,7.606h-8.323l-0.773,3.836h8.324l-0.685,3.404h-0.305c-0.66,0.05-1.269,0.221-1.868,0.456
		l0.127-0.636h-4.432l-3.797,18.867c-0.719,3.573-1.31,4.464-1.472,4.652l-3.439,0.012l-0.639,3.154l0.312,0.007
		c0.786,0.013,4.729,0.073,5.227-0.123c2.2-0.731,3.656-3.106,4.313-7.053l2.938-14.599c0.573-0.607,1.332-0.946,2.295-1.052
		c-0.134,0.668-5.313,27.318-5.313,27.318h4.233c0,0,5.436-26.936,5.518-27.347h0.666c0.52,0,0.896,0.096,1.032,0.261
		c0.049,0.06,0.133,0.214,0.14,0.564l-0.085,0.806l-2.695,13.398c-0.435,1.443-0.648,2.718-0.626,3.763
		c0.019,0.927,0.21,1.715,0.603,2.32c0.741,1.145,1.304,1.229,1.821,1.524h-3.537l-1.192,3.38l0.21,0.084
		c0.026,0.011,4.612,0.158,4.798-0.044l-0.175,0.08c4.933-0.008,6.941-4.912,7.94-7.193l0.194-0.44
		c0.863-2.392,1.56-4.906,2.082-7.495c0,0,4.241-21.074,4.273-21.235c0.643-0.825,1.568-1.276,2.835-1.367l4.802,0.003
		c1.32,0,1.648,0.316,1.699,0.38c0.055,0.066,0.133,0.245,0.038,0.707l-6.181,31.256c-0.575,2.44-0.145,4.465,0.839,5.387
		c1.177,1.098,2.704,1.152,2.767,1.155l5.199,0.001l0.558-3.705C163.322,45.918,158.305,45.91,158.304,45.91L158.304,45.91z
		 M307.233,8.352c-0.739-0.901-2.352-2.206-5.215-2.206h-26.924c-1.555,0-2.135,0.684-2.8,1.021l0.234-1.191h-4.376l-8.214,43.61
		h4.314l1.73-9.308h3.866c1.305,0,4.078-2.716,7.722-8.352l0.47,1.154c0.605,1.663,1.392,3.624,3.01,4.234
		c-0.488,0.388-1.16,0.735-1.736,0.916l-0.184,0.056l-0.189,1.977h3.034c1.93,0,4.243-2.896,6.298-5.843
		c0.696-1.001,1.35-1.915,1.952-2.66c0.105,0.323,0.223,0.752,0.363,1.301c0.705,2.749,1.745,7.202,4.158,7.202h2.473l0.556-1.644
		l-0.194-0.088c-1.84-0.845-2.952-5.207-3.765-8.396l-0.677-2.442c0.132-0.195,8.26-12.155,8.26-12.155h-4.639l-5.239,6.976
		c-0.257-0.858-2.144-7.181-2.144-7.181h-5.702c0,0-4.453,6.544-4.994,7.341l-2.213-7.385h-4.665c0,0,3.942,11.675,4.024,11.922
		c-0.823,1.063-1.596,2.249-2.409,3.511c-1.935,2.992-3.934,6.089-6.723,7.44l-0.115,0.059l-0.45,1.258l5.021-27.01
		c0.39-2.129,3.113-2.79,4.439-2.79h25.456c1.092,0,1.72,0.959,2.249,1.604c0.419,0.512,0.56,1.183,0.408,1.94l-6.162,30.574
		c-0.391,1.52-1.76,2.339-2.219,2.342h-8.252l-0.886,3.521h9.132c4.024,0,5.685-1.933,6.491-5.532l6.412-31.807
		C308.437,11.254,308.292,9.65,307.233,8.352L307.233,8.352z M286.401,16.561c0.672,1.647,2.789,11.09,2.789,11.09
		c-1.513,2.587-6.083,8.191-6.083,8.191c-2.52-1.168-3.662-8.427-3.662-8.427C280.824,24.901,286.401,16.561,286.401,16.561z
		 M251.962,45.244l6.439-31.476c0.235-1.134-0.406-3.86-0.769-4.446c-0.65-1.098-1.816-1.523-2.594-1.857
		c-0.432-0.189-1.248-0.366-1.446-0.362h-18.769l-0.709,3.378h16.884c0.748,0.004,1.882,0.667,2.31,0.965
		c0.508,0.354,0.863,2.586,0.741,3.168l-6.45,31.516c-0.17,0.822,0.765,2.614,1.759,2.971c1.809,0.652,1.482,0.51,2.979,0.51
		c0.197,0,6.163-0.083,6.793-0.024l0.19-3.482l-6.076-0.021C252.938,46.084,251.76,46.211,251.962,45.244z M222.205,45.485
		l4.572-22.494c0.33-1.589-0.71-4.067-2.827-4.064h-5.772l-0.717,3.46h4.113c0.86,0.004,1.074,0.752,0.946,1.377l-4.498,22.134
		c-0.522,2.522,1.087,3.767,3.573,3.763h6.548l0.832-3.494h-6.153C222.389,46.161,222.108,45.948,222.205,45.485L222.205,45.485z"/>
	<polygon fill="#2B73DF" points="250.39,24.807 241.674,24.807 244.416,11.619 240.334,11.619 237.584,24.844 228.608,24.844 
		227.835,28.566 236.814,28.566 232.464,49.496 236.655,49.496 241.034,28.447 249.637,28.447 	"/>
	<path fill="#2B73DF" d="M216.847,5.926h-4.699c-1.979,2.111-2.997,4.6-5.967,6.32c-0.395,0.23-0.749,0.538-1.017,0.767H203
		l3.286-7.087h-4.071l-3.195,6.691c-2.332-1.641-3.024-4.455-3.851-6.691h-4.704c0.542,1.645,1.501,5.275,3.359,6.946H188
		l-0.742,3.57h9.762c-0.652,0.824-1.167,1.763-1.991,2.485h-9.784l-0.745,3.584h7.083c-2.521,2.209-5.363,4.502-7.686,4.496
		l-0.637,3.333l2.479-0.113c0.552,0.003,2.879-0.923,2.991-0.985l-1.176,5.649l0.027,0.88c0.176,0.658,0.886,2.067,1.644,2.067
		h16.211c1.279,0,1.579,0.605,1.318,1.854l-0.926,3.704c-0.315,0.811-1.584,2.484-2.694,2.493H188.62l-0.588,3.791h14.809
		c3.367,0.003,5.214-0.515,6.764-4.734l1.771-8.323c0.239-0.976-1.156-2.347-1.837-2.242l0.888-4.274
		c0.962,0.322,1.974,0.401,2.959,0.714c0.442-0.892,0.781-1.759,1.184-2.576c-2.065-0.878-3.672-3.73-5.112-5.719h5.976l0.774-3.708
		h-16.62l1.674-2.425h13.64l0.73-3.501h-4.796C213.496,10.701,214.965,8.25,216.847,5.926L216.847,5.926z M206.723,30.392
		l-0.204,0.708c-0.847,3.865-0.694,2.035-0.605,3.101H192.07c0.407-0.989,0.395-0.813,1.356-5.184h11.641
		c0.374-0.003,1.451,0.287,1.723,0.481C206.851,29.746,206.76,30.195,206.723,30.392L206.723,30.392z M204.869,22.396
		c0.376-0.005,2.097,2.898,2.215,3.206h-13.23c1.011-1.04,2.558-2.268,3.284-3.206H204.869z"/>
</g>
<path fill="#2B73DF" d="M33.93,86.108c1.401-1.719,2.245-3.895,2.245-6.262c0-5.546-4.596-10.057-10.246-10.057
	S15.682,74.3,15.682,79.846c0,2.332,0.821,4.477,2.186,6.186C14.87,87.779,9.5,92.036,9.5,100.098c0,5.307,8.61,7.683,17.144,7.683
	c3.958,0,7.624-0.548,10.322-1.542c4.588-1.688,5.551-4.275,5.551-6.147C42.518,92.412,36.911,87.942,33.93,86.108z M35.653,102.805
	c-2.289,0.842-5.488,1.308-9.009,1.308c-8.184,0-13.406-2.378-13.406-4.015c0-7.527,6.074-10.783,7.659-11.505l0.111,0.053
	c0.449-0.12,1.614-0.549,1.701-1.831c0.05-0.738-0.273-1.366-0.662-1.857c-0.41-0.3-0.786-0.642-1.113-1.027l-0.11-0.071
	l0.047-0.006c-0.905-1.097-1.45-2.491-1.45-4.008c0-3.523,2.919-6.388,6.508-6.388s6.508,2.865,6.508,6.388
	c0,1.504-0.534,2.886-1.425,3.977l0.065,0.008l-0.217,0.152c-0.258,0.295-0.544,0.561-0.853,0.806
	c-0.428,0.511-0.81,1.197-0.747,2.014c0.122,1.59,1.87,1.871,1.87,1.871l-0.05,0.047c1.747,0.914,7.699,4.529,7.699,11.371
	C38.78,101.45,36.821,102.373,35.653,102.805z"/>
<path fill="#66D32B" d="M77.3,78.79c-1.992,0-3.612-1.62-3.612-3.612v-3.889c0-1.992,1.62-3.612,3.612-3.612h3.889
	c1.992,0,3.612,1.62,3.612,3.612v3.889c0,1.992-1.62,3.612-3.612,3.612H77.3z"/>
<path fill="#FFFFFF" d="M81.189,68.511c1.534,0,2.778,1.244,2.778,2.778v3.889c0,1.535-1.245,2.778-2.778,2.778H77.3
	c-1.535,0-2.778-1.244-2.778-2.778v-3.889c0-1.534,1.244-2.778,2.778-2.778H81.189 M81.189,66.844H77.3
	c-2.451,0-4.445,1.994-4.445,4.445v3.889c0,2.451,1.994,4.445,4.445,4.445h3.889c2.451,0,4.445-1.994,4.445-4.445v-3.889
	C85.634,68.838,83.64,66.844,81.189,66.844z"/>
<path fill="#AFAFAF" d="M11.317,130.259l3.182-3.183c0.586-0.586,0.586-1.535,0-2.121s-1.535-0.586-2.121,0l-4.243,4.243
	c-0.585,0.585-0.585,1.535,0,2.121l4.243,4.242c0.586,0.586,1.535,0.586,2.121,0s0.586-1.535,0-2.121L11.317,130.259z"/>
<path fill="#1864D6" d="M46.712,129.198l-4.243-4.243c-0.586-0.586-1.535-0.586-2.121,0s-0.586,1.535,0,2.121l3.182,3.183
	l-3.182,3.182c-0.586,0.586-0.586,1.535,0,2.121s1.535,0.586,2.121,0l4.243-4.242C47.297,130.733,47.297,129.783,46.712,129.198
	L46.712,129.198z"/>
<path fill="#E6E6E6" d="M21.5,128.258c-1.104,0-2,0.896-2,2c0,1.105,0.896,2,2,2c1.105,0,2-0.895,2-2
	C23.5,129.154,22.604,128.258,21.5,128.258z M27.5,128.258c-1.104,0-2,0.896-2,2c0,1.105,0.896,2,2,2c1.105,0,2-0.895,2-2
	C29.5,129.154,28.604,128.258,27.5,128.258z M33.5,128.258c-1.104,0-2,0.896-2,2c0,1.105,0.896,2,2,2c1.105,0,2-0.895,2-2
	C35.5,129.154,34.604,128.258,33.5,128.258z"/>
<path fill="#1864D6" d="M11.317,147.5l3.182-3.182c0.586-0.586,0.586-1.535,0-2.121s-1.535-0.586-2.121,0l-4.243,4.243
	c-0.585,0.585-0.585,1.535,0,2.121l4.243,4.242c0.586,0.586,1.535,0.586,2.121,0s0.586-1.535,0-2.121L11.317,147.5L11.317,147.5z"/>
<path fill="#1864D6" d="M46.712,146.44l-4.243-4.243c-0.586-0.586-1.535-0.586-2.121,0s-0.586,1.535,0,2.121l3.182,3.182
	l-3.182,3.182c-0.586,0.586-0.586,1.535,0,2.121s1.535,0.586,2.121,0l4.243-4.242C47.297,147.975,47.297,147.025,46.712,146.44
	L46.712,146.44z"/>
<path fill="#E6E6E6" d="M21.5,145.5c-1.104,0-2,0.896-2,2c0,1.105,0.896,2,2,2c1.105,0,2-0.895,2-2S22.604,145.5,21.5,145.5z
	 M27.5,145.5c-1.104,0-2,0.896-2,2c0,1.105,0.896,2,2,2c1.105,0,2-0.895,2-2S28.604,145.5,27.5,145.5z M33.5,145.5
	c-1.104,0-2,0.896-2,2c0,1.105,0.896,2,2,2c1.105,0,2-0.895,2-2S34.604,145.5,33.5,145.5z"/>
<path fill="#AFAFAF" d="M46.712,129.198l-4.243-4.243c-0.586-0.586-1.535-0.586-2.121,0s-0.586,1.535,0,2.121l3.182,3.182
	l-3.182,3.182c-0.586,0.586-0.586,1.535,0,2.121s1.535,0.586,2.121,0l4.243-4.242C47.297,130.733,47.297,129.783,46.712,129.198
	L46.712,129.198z"/>
<circle fill="#2B73DF" cx="78.87" cy="91.666" r="3.875"/>
<circle fill="#84AEEC" cx="78.87" cy="106.346" r="3.875"/>
</svg>
